<svg width="407" height="60" xmlns="http://www.w3.org/2000/svg"><path d="M78.62 31.43a2.657 2.657 0 1 1 .001-5.315 2.657 2.657 0 0 1 0 5.314zM7.99 31.138a2.657 2.657 0 1 1 0-5.314 2.657 2.657 0 0 1 0 5.314zm73.525-10.173a7.477 7.477 0 0 0-9.364 4.917c-.06.192-6.228 19.16-28.766 19.16-22.224 0-28.523-18.428-28.764-19.16A7.479 7.479 0 0 0 .34 30.33C3.536 40.592 16.645 60 43.384 60c26.74 0 39.85-19.408 43.046-29.67a7.478 7.478 0 0 0-4.916-9.364zm137.223-5.803c-4.98 0-9.012 2.01-12.282 6.137V5.124C206.455 2.3 204.12 0 201.253 0c-2.872 0-5.123 2.251-5.123 5.124v47.961c0 2.873 2.25 5.123 5.123 5.123 2.917 0 5.202-2.25 5.202-5.123V34.287c0-5.863 3.423-9.651 8.722-9.651 5.326 0 8.26 3.372 8.26 9.496v18.953c0 2.873 2.284 5.123 5.201 5.123 2.873 0 5.123-2.25 5.123-5.123V31.271c0-9.937-5.757-16.108-15.024-16.108zm124.465 0c-5.56 0-10.047 2.222-13.694 6.79-2.477-4.387-6.816-6.79-12.297-6.79-5.983 0-9.542 3.045-11.971 6.086v-.499c0-2.917-2.285-5.2-5.202-5.2-2.873 0-5.124 2.283-5.124 5.2v32.335c0 2.873 2.25 5.123 5.124 5.123 2.917 0 5.202-2.25 5.202-5.123V34.287c0-5.863 3.24-9.651 8.257-9.651 4.954 0 7.796 3.433 7.796 9.419v19.03c0 2.873 2.284 5.123 5.201 5.123 2.874 0 5.125-2.25 5.125-5.123V34.287c0-5.953 3.164-9.651 8.257-9.651 5.027 0 7.794 3.372 7.794 9.496v18.953c0 2.873 2.285 5.123 5.202 5.123 2.873 0 5.124-2.25 5.124-5.123V31.271c0-10.087-5.53-16.108-14.794-16.108zm33.283 18.41c.996-5.966 4.89-9.788 10.039-9.788 6.278 0 9.167 4.96 9.822 9.787h-19.861zm10.116-18.41c-11.653 0-20.44 9.352-20.44 21.754v.155c0 12.561 9.019 21.678 21.445 21.678 5.948 0 10.861-1.811 15.04-5.556.889-.89 1.38-2.028 1.38-3.204 0-2.395-1.844-4.273-4.197-4.273-1.226 0-1.94.365-2.705.961-2.819 2.321-5.88 3.45-9.363 3.45-5.846 0-10.088-3.587-11.187-9.402h25.034c2.744 0 4.893-2.183 4.893-4.97 0-9.983-6.975-20.593-19.9-20.593zM276.038 37.149c0 7.206-5.002 12.436-11.894 12.436-6.713 0-11.972-5.53-11.972-12.59v-.155c0-7.251 4.97-12.513 11.817-12.513 6.87 0 12.05 5.446 12.05 12.668v.154zm-11.894-21.986c-12.503 0-22.298 9.589-22.298 21.832v.154c0 12.113 9.727 21.601 22.143 21.601 12.547 0 22.375-9.556 22.375-21.755v-.155c0-12.156-9.76-21.677-22.22-21.677zm-148.816 18.41c.995-5.965 4.888-9.788 10.037-9.788 6.278 0 9.167 4.96 9.823 9.787h-19.86zm10.115-18.41c-11.653 0-20.441 9.352-20.441 21.754v.155c0 12.561 9.02 21.678 21.447 21.678 5.946 0 10.859-1.811 15.039-5.556.89-.89 1.379-2.027 1.379-3.204 0-2.395-1.843-4.273-4.195-4.273-1.225 0-1.94.365-2.705.961-2.82 2.321-5.882 3.45-9.363 3.45-5.847 0-10.088-3.587-11.187-9.402h25.033c2.743 0 4.892-2.183 4.892-4.97 0-9.983-6.975-20.593-19.899-20.593zm58.018 34.036h-19.044L185.52 25.25c1.353-1.503 2.136-2.771 2.136-4.81v-.231c0-2.393-2.137-4.196-4.97-4.196h-26.919c-2.44 0-4.351 1.91-4.351 4.35 0 2.356 1.953 4.273 4.351 4.273h18.196l-21.02 23.939c-1.64 1.725-2.223 2.987-2.223 4.82v.154c0 2.436 2.17 4.272 5.047 4.272h27.694c2.398 0 4.35-1.916 4.35-4.272 0-2.44-1.91-4.35-4.35-4.35z" fill="#00D35A" fill-rule="evenodd"/></svg>